<svg width="53" height="53" viewBox="0 0 53 53" fill="none" xmlns="http://www.w3.org/2000/svg">
<circle cx="26.5" cy="26.5" r="26.5" transform="matrix(1 0 0 -1 0 53)" fill="white"/>
<path d="M43.9267 26.9633C43.9267 17.0425 35.8842 9 25.9633 9C16.0425 9 8 17.0425 8 26.9633C8 35.9292 14.5689 43.3608 23.1566 44.7084V32.1559H18.5956V26.9633H23.1566V23.0058C23.1566 18.5037 25.8384 16.0169 29.9416 16.0169C31.9063 16.0169 33.9626 16.3678 33.9626 16.3678V20.7884H31.6976C29.4662 20.7884 28.7701 22.1732 28.7701 23.5952V26.9633H33.7521L32.9557 32.1559H28.7701V44.7084C37.3578 43.3608 43.9267 35.9292 43.9267 26.9633Z" fill="#5BA0FB"/>
</svg>
