<svg width="60" height="60" viewBox="0 0 60 60" fill="none" xmlns="http://www.w3.org/2000/svg">
<path d="M18.0059 19.6202H50.0001V15.7367H21.8894V10.8835H50.0001V7H18.0059V19.6202Z" fill="#259D4A"/>
<path d="M46.1136 24.6241V31.8461C46.1136 36.2526 44.3631 40.4786 41.2473 43.5945C38.1314 46.7103 33.9054 48.4608 29.4989 48.4608C25.0923 48.4608 20.8663 46.7103 17.7504 43.5945C14.6346 40.4786 12.8841 36.2526 12.8841 31.8461V7H9V31.8461C9 37.2826 11.1597 42.4965 15.0039 46.3407C18.8481 50.185 24.062 52.3446 29.4986 52.3446C34.9351 52.3446 40.149 50.185 43.9932 46.3407C47.8375 42.4965 49.9971 37.2826 49.9971 31.8461V24.6241H46.1136Z" fill="#259D4A"/>
<path d="M37.1133 31.5351C37.0956 33.5422 36.2858 35.4611 34.8602 36.8741C33.4347 38.2871 31.5087 39.0799 29.5015 39.0799C27.4943 39.0799 25.5683 38.2871 24.1428 36.8741C22.7172 35.4611 21.9074 33.5422 21.8897 31.5351V24.624H18.0062V31.5351C17.9952 33.0517 18.2845 34.5554 18.8573 35.9596C19.4301 37.3639 20.2751 38.6409 21.3436 39.7172C22.4122 40.7934 23.6831 41.6476 25.0832 42.2305C26.4833 42.8134 27.9849 43.1135 29.5015 43.1135C31.0181 43.1135 32.5197 42.8134 33.9198 42.2305C35.3199 41.6476 36.5908 40.7934 37.6593 39.7172C38.7279 38.6409 39.5729 37.3639 40.1457 35.9596C40.7185 34.5554 41.0077 33.0517 40.9968 31.5351V24.624H37.1133V31.5351Z" fill="#259D4A"/>
<path d="M29.4259 32.2975L31.5034 33.6067V24.624H27.4937V33.6067L29.4259 32.2975Z" fill="#259D4A"/>
</svg>
