<svg width="53" height="53" viewBox="0 0 53 53" fill="none" xmlns="http://www.w3.org/2000/svg">
<circle cx="26.5" cy="26.5" r="26.5" transform="matrix(1 0 0 -1 0 53)" fill="white"/>
<path fill-rule="evenodd" clip-rule="evenodd" d="M16.597 9C11.849 9 8 12.849 8 17.597V36.403C8 41.151 11.849 45 16.597 45H35.403C40.151 45 44 41.151 44 36.403V17.597C44 12.849 40.151 9 35.403 9H16.597ZM31.4772 16.7709C30.1222 16.7105 29.7142 16.6954 26.2687 16.6954C22.8231 16.6954 22.4151 16.7105 21.0601 16.7709C19.8058 16.8263 19.1207 17.0379 18.6674 17.2142C18.0679 17.4459 17.6397 17.723 17.1864 18.1763C16.7381 18.6247 16.456 19.0579 16.2243 19.6573C16.048 20.1107 15.8364 20.7907 15.781 22.05C15.7205 23.4051 15.7054 23.8131 15.7054 27.2586C15.7054 30.6991 15.7205 31.1071 15.781 32.4672C15.8364 33.7215 16.048 34.4066 16.2243 34.8599C16.456 35.4594 16.733 35.8875 17.1864 36.3409C17.6347 36.7892 18.0679 37.0713 18.6674 37.303C19.1207 37.4793 19.8008 37.6909 21.0601 37.7463C22.4151 37.8068 22.8231 37.8219 26.2687 37.8219C29.7091 37.8219 30.1172 37.8068 31.4772 37.7463C32.7315 37.6909 33.4166 37.4793 33.87 37.303C34.4694 37.0713 34.8976 36.7943 35.3509 36.3409C35.7993 35.8926 36.0813 35.4594 36.3131 34.8599C36.4894 34.4066 36.7009 33.7265 36.7563 32.4672C36.8168 31.1122 36.8319 30.7041 36.8319 27.2586C36.8319 23.8181 36.8168 23.4101 36.7563 22.05C36.7009 20.7957 36.4894 20.1107 36.3131 19.6573C36.0813 19.0579 35.8043 18.6297 35.3509 18.1763C34.9026 17.728 34.4694 17.4459 33.87 17.2142C33.4166 17.0379 32.7366 16.8263 31.4772 16.7709ZM20.9543 14.4487C22.3295 14.3883 22.7677 14.3732 26.2687 14.3732C29.7696 14.3732 30.2078 14.3883 31.5881 14.4538C32.9582 14.5142 33.8952 14.7359 34.7162 15.0532C35.5625 15.3806 36.2828 15.8239 36.9981 16.5392C37.7185 17.2545 38.1567 17.9748 38.4741 18.8312C38.7914 19.6472 39.0131 20.5892 39.0735 21.9594C39.134 23.3345 39.1491 23.7728 39.1491 27.2737C39.1491 30.7747 39.134 31.2129 39.0735 32.5881C39.0131 33.9582 38.7914 34.8952 38.4741 35.7163C38.1466 36.5625 37.7034 37.2829 36.9881 37.9982C36.2728 38.7135 35.5524 39.1568 34.7062 39.4842C33.8901 39.8015 32.9481 40.0232 31.578 40.0836C30.2028 40.1441 29.7646 40.1592 26.2636 40.1592C22.7627 40.1592 22.3244 40.1441 20.9493 40.0836C19.5791 40.0232 18.6422 39.8015 17.8211 39.4842C16.9748 39.1568 16.2545 38.7135 15.5392 37.9982C14.8188 37.2829 14.3806 36.5625 14.0481 35.7112C13.7308 34.8952 13.5091 33.9532 13.4487 32.5831C13.3883 31.2079 13.3731 30.7696 13.3731 27.2687C13.3731 23.7678 13.3883 23.3295 13.4487 21.9493C13.5091 20.5791 13.7308 19.6422 14.0481 18.8211C14.3806 17.9748 14.8188 17.2545 15.5392 16.5392C16.2545 15.8189 16.9748 15.3806 17.8261 15.0482C18.6422 14.7308 19.5841 14.5092 20.9543 14.4487ZM26.2687 20.6445C22.6116 20.6445 19.6446 23.6115 19.6446 27.2686C19.6446 30.9257 22.6116 33.8927 26.2687 33.8927C29.9257 33.8927 32.8927 30.9257 32.8927 27.2686C32.8927 23.6115 29.9257 20.6445 26.2687 20.6445ZM26.2687 31.5654C23.8961 31.5654 21.9718 29.6412 21.9718 27.2686C21.9718 24.896 23.8961 22.9718 26.2687 22.9718C28.6412 22.9718 30.5655 24.896 30.5655 27.2686C30.5655 29.6412 28.6412 31.5654 26.2687 31.5654ZM33.154 21.9291C34.0053 21.9291 34.7004 21.239 34.7004 20.3826C34.7004 19.5313 34.0053 18.8362 33.154 18.8362C32.3027 18.8362 31.6075 19.5263 31.6075 20.3826C31.6075 21.2339 32.2976 21.9291 33.154 21.9291Z" fill="url(#paint0_linear_1173_6)"/>
<path fill-rule="evenodd" clip-rule="evenodd" d="M16.597 9C11.849 9 8 12.849 8 17.597V36.403C8 41.151 11.849 45 16.597 45H35.403C40.151 45 44 41.151 44 36.403V17.597C44 12.849 40.151 9 35.403 9H16.597ZM31.4772 16.7709C30.1222 16.7105 29.7142 16.6954 26.2687 16.6954C22.8231 16.6954 22.4151 16.7105 21.0601 16.7709C19.8058 16.8263 19.1207 17.0379 18.6674 17.2142C18.0679 17.4459 17.6397 17.723 17.1864 18.1763C16.7381 18.6247 16.456 19.0579 16.2243 19.6573C16.048 20.1107 15.8364 20.7907 15.781 22.05C15.7205 23.4051 15.7054 23.8131 15.7054 27.2586C15.7054 30.6991 15.7205 31.1071 15.781 32.4672C15.8364 33.7215 16.048 34.4066 16.2243 34.8599C16.456 35.4594 16.733 35.8875 17.1864 36.3409C17.6347 36.7892 18.0679 37.0713 18.6674 37.303C19.1207 37.4793 19.8008 37.6909 21.0601 37.7463C22.4151 37.8068 22.8231 37.8219 26.2687 37.8219C29.7091 37.8219 30.1172 37.8068 31.4772 37.7463C32.7315 37.6909 33.4166 37.4793 33.87 37.303C34.4694 37.0713 34.8976 36.7943 35.3509 36.3409C35.7993 35.8926 36.0813 35.4594 36.3131 34.8599C36.4894 34.4066 36.7009 33.7265 36.7563 32.4672C36.8168 31.1122 36.8319 30.7041 36.8319 27.2586C36.8319 23.8181 36.8168 23.4101 36.7563 22.05C36.7009 20.7957 36.4894 20.1107 36.3131 19.6573C36.0813 19.0579 35.8043 18.6297 35.3509 18.1763C34.9026 17.728 34.4694 17.4459 33.87 17.2142C33.4166 17.0379 32.7366 16.8263 31.4772 16.7709ZM20.9543 14.4487C22.3295 14.3883 22.7677 14.3732 26.2687 14.3732C29.7696 14.3732 30.2078 14.3883 31.5881 14.4538C32.9582 14.5142 33.8952 14.7359 34.7162 15.0532C35.5625 15.3806 36.2828 15.8239 36.9981 16.5392C37.7185 17.2545 38.1567 17.9748 38.4741 18.8312C38.7914 19.6472 39.0131 20.5892 39.0735 21.9594C39.134 23.3345 39.1491 23.7728 39.1491 27.2737C39.1491 30.7747 39.134 31.2129 39.0735 32.5881C39.0131 33.9582 38.7914 34.8952 38.4741 35.7163C38.1466 36.5625 37.7034 37.2829 36.9881 37.9982C36.2728 38.7135 35.5524 39.1568 34.7062 39.4842C33.8901 39.8015 32.9481 40.0232 31.578 40.0836C30.2028 40.1441 29.7646 40.1592 26.2636 40.1592C22.7627 40.1592 22.3244 40.1441 20.9493 40.0836C19.5791 40.0232 18.6422 39.8015 17.8211 39.4842C16.9748 39.1568 16.2545 38.7135 15.5392 37.9982C14.8188 37.2829 14.3806 36.5625 14.0481 35.7112C13.7308 34.8952 13.5091 33.9532 13.4487 32.5831C13.3883 31.2079 13.3731 30.7696 13.3731 27.2687C13.3731 23.7678 13.3883 23.3295 13.4487 21.9493C13.5091 20.5791 13.7308 19.6422 14.0481 18.8211C14.3806 17.9748 14.8188 17.2545 15.5392 16.5392C16.2545 15.8189 16.9748 15.3806 17.8261 15.0482C18.6422 14.7308 19.5841 14.5092 20.9543 14.4487ZM26.2687 20.6445C22.6116 20.6445 19.6446 23.6115 19.6446 27.2686C19.6446 30.9257 22.6116 33.8927 26.2687 33.8927C29.9257 33.8927 32.8927 30.9257 32.8927 27.2686C32.8927 23.6115 29.9257 20.6445 26.2687 20.6445ZM26.2687 31.5654C23.8961 31.5654 21.9718 29.6412 21.9718 27.2686C21.9718 24.896 23.8961 22.9718 26.2687 22.9718C28.6412 22.9718 30.5655 24.896 30.5655 27.2686C30.5655 29.6412 28.6412 31.5654 26.2687 31.5654ZM33.154 21.9291C34.0053 21.9291 34.7004 21.239 34.7004 20.3826C34.7004 19.5313 34.0053 18.8362 33.154 18.8362C32.3027 18.8362 31.6075 19.5263 31.6075 20.3826C31.6075 21.2339 32.2976 21.9291 33.154 21.9291Z" fill="url(#paint1_linear_1173_6)" fill-opacity="0.2"/>
<path fill-rule="evenodd" clip-rule="evenodd" d="M16.597 9C11.849 9 8 12.849 8 17.597V36.403C8 41.151 11.849 45 16.597 45H35.403C40.151 45 44 41.151 44 36.403V17.597C44 12.849 40.151 9 35.403 9H16.597ZM31.4772 16.7709C30.1222 16.7105 29.7142 16.6954 26.2687 16.6954C22.8231 16.6954 22.4151 16.7105 21.0601 16.7709C19.8058 16.8263 19.1207 17.0379 18.6674 17.2142C18.0679 17.4459 17.6397 17.723 17.1864 18.1763C16.7381 18.6247 16.456 19.0579 16.2243 19.6573C16.048 20.1107 15.8364 20.7907 15.781 22.05C15.7205 23.4051 15.7054 23.8131 15.7054 27.2586C15.7054 30.6991 15.7205 31.1071 15.781 32.4672C15.8364 33.7215 16.048 34.4066 16.2243 34.8599C16.456 35.4594 16.733 35.8875 17.1864 36.3409C17.6347 36.7892 18.0679 37.0713 18.6674 37.303C19.1207 37.4793 19.8008 37.6909 21.0601 37.7463C22.4151 37.8068 22.8231 37.8219 26.2687 37.8219C29.7091 37.8219 30.1172 37.8068 31.4772 37.7463C32.7315 37.6909 33.4166 37.4793 33.87 37.303C34.4694 37.0713 34.8976 36.7943 35.3509 36.3409C35.7993 35.8926 36.0813 35.4594 36.3131 34.8599C36.4894 34.4066 36.7009 33.7265 36.7563 32.4672C36.8168 31.1122 36.8319 30.7041 36.8319 27.2586C36.8319 23.8181 36.8168 23.4101 36.7563 22.05C36.7009 20.7957 36.4894 20.1107 36.3131 19.6573C36.0813 19.0579 35.8043 18.6297 35.3509 18.1763C34.9026 17.728 34.4694 17.4459 33.87 17.2142C33.4166 17.0379 32.7366 16.8263 31.4772 16.7709ZM20.9543 14.4487C22.3295 14.3883 22.7677 14.3732 26.2687 14.3732C29.7696 14.3732 30.2078 14.3883 31.5881 14.4538C32.9582 14.5142 33.8952 14.7359 34.7162 15.0532C35.5625 15.3806 36.2828 15.8239 36.9981 16.5392C37.7185 17.2545 38.1567 17.9748 38.4741 18.8312C38.7914 19.6472 39.0131 20.5892 39.0735 21.9594C39.134 23.3345 39.1491 23.7728 39.1491 27.2737C39.1491 30.7747 39.134 31.2129 39.0735 32.5881C39.0131 33.9582 38.7914 34.8952 38.4741 35.7163C38.1466 36.5625 37.7034 37.2829 36.9881 37.9982C36.2728 38.7135 35.5524 39.1568 34.7062 39.4842C33.8901 39.8015 32.9481 40.0232 31.578 40.0836C30.2028 40.1441 29.7646 40.1592 26.2636 40.1592C22.7627 40.1592 22.3244 40.1441 20.9493 40.0836C19.5791 40.0232 18.6422 39.8015 17.8211 39.4842C16.9748 39.1568 16.2545 38.7135 15.5392 37.9982C14.8188 37.2829 14.3806 36.5625 14.0481 35.7112C13.7308 34.8952 13.5091 33.9532 13.4487 32.5831C13.3883 31.2079 13.3731 30.7696 13.3731 27.2687C13.3731 23.7678 13.3883 23.3295 13.4487 21.9493C13.5091 20.5791 13.7308 19.6422 14.0481 18.8211C14.3806 17.9748 14.8188 17.2545 15.5392 16.5392C16.2545 15.8189 16.9748 15.3806 17.8261 15.0482C18.6422 14.7308 19.5841 14.5092 20.9543 14.4487ZM26.2687 20.6445C22.6116 20.6445 19.6446 23.6115 19.6446 27.2686C19.6446 30.9257 22.6116 33.8927 26.2687 33.8927C29.9257 33.8927 32.8927 30.9257 32.8927 27.2686C32.8927 23.6115 29.9257 20.6445 26.2687 20.6445ZM26.2687 31.5654C23.8961 31.5654 21.9718 29.6412 21.9718 27.2686C21.9718 24.896 23.8961 22.9718 26.2687 22.9718C28.6412 22.9718 30.5655 24.896 30.5655 27.2686C30.5655 29.6412 28.6412 31.5654 26.2687 31.5654ZM33.154 21.9291C34.0053 21.9291 34.7004 21.239 34.7004 20.3826C34.7004 19.5313 34.0053 18.8362 33.154 18.8362C32.3027 18.8362 31.6075 19.5263 31.6075 20.3826C31.6075 21.2339 32.2976 21.9291 33.154 21.9291Z" fill="url(#paint2_linear_1173_6)"/>
<defs>
<linearGradient id="paint0_linear_1173_6" x1="9.34328" y1="9" x2="39.4328" y2="41.7761" gradientUnits="userSpaceOnUse">
<stop stop-color="#654EC9"/>
<stop offset="1" stop-color="#D34076"/>
</linearGradient>
<linearGradient id="paint1_linear_1173_6" x1="38.6269" y1="12.4925" x2="26" y2="45" gradientUnits="userSpaceOnUse">
<stop stop-color="#BD34A2"/>
<stop offset="1" stop-color="white" stop-opacity="0"/>
</linearGradient>
<linearGradient id="paint2_linear_1173_6" x1="10.1493" y1="43.3881" x2="36.4776" y2="15.4478" gradientUnits="userSpaceOnUse">
<stop stop-color="#DF9944"/>
<stop offset="0.500119" stop-color="#EF4C5D"/>
<stop offset="1" stop-color="#D34076" stop-opacity="0"/>
</linearGradient>
</defs>
</svg>
