<svg width="259" height="66" viewBox="0 0 259 66" fill="none" xmlns="http://www.w3.org/2000/svg">
<g clip-path="url(#clip0_1040_54)">
<path d="M12.8271 18.8652H58.412V13.3321H18.3603V6.41734H58.412V0.884186H12.8271V18.8652Z" fill="#259D4A"/>
<path d="M52.879 25.9947V36.2845C52.879 42.5628 50.3849 48.584 45.9455 53.0235C41.506 57.4629 35.4848 59.957 29.2065 59.957C22.9282 59.957 16.907 57.4629 12.4675 53.0235C8.02806 48.584 5.534 42.5628 5.534 36.2845V0.884186H0V36.2845C0 44.0304 3.07706 51.4591 8.55426 56.9363C14.0315 62.4135 21.4601 65.4906 29.2061 65.4906C36.952 65.4906 44.3807 62.4135 49.8579 56.9363C55.3351 51.4591 58.4121 44.0304 58.4121 36.2845V25.9947H52.879Z" fill="#259D4A"/>
<path d="M40.0512 35.8418C40.0259 38.7015 38.8722 41.4355 36.841 43.4488C34.8099 45.462 32.0658 46.5915 29.206 46.5915C26.3461 46.5915 23.602 45.462 21.5709 43.4488C19.5398 41.4355 18.386 38.7015 18.3607 35.8418V25.995H12.8276V35.8418C12.812 38.0026 13.2242 40.1451 14.0403 42.1458C14.8564 44.1466 16.0604 45.9661 17.5828 47.4995C19.1052 49.0329 20.916 50.25 22.9108 51.0805C24.9057 51.911 27.0451 52.3385 29.206 52.3385C31.3668 52.3385 33.5063 51.911 35.5011 51.0805C37.4959 50.25 39.3067 49.0329 40.8292 47.4995C42.3516 45.9661 43.5555 44.1466 44.3716 42.1458C45.1878 40.1451 45.5999 38.0026 45.5844 35.8418V25.995H40.0512V35.8418Z" fill="#259D4A"/>
<path d="M29.1036 36.927L32.0637 38.7923V25.9939H26.3506V38.7923L29.1036 36.927Z" fill="#259D4A"/>
<path d="M74.4629 20.2316V3.71359H77.9211V17.1816H86.13V20.2316H74.4629Z" fill="#17444C"/>
<path d="M94.4546 16.531H97.7661C97.4767 17.7496 96.7575 18.823 95.7403 19.5539C94.6494 20.3049 93.3471 20.6879 92.0233 20.6469C91.2245 20.6845 90.4272 20.5446 89.689 20.2371C88.9507 19.9297 88.2898 19.4625 87.7538 18.869C86.6449 17.5171 86.0827 15.7989 86.1778 14.053C86.081 12.3398 86.6355 10.6534 87.73 9.33196C88.2688 8.75146 88.9282 8.29601 89.6618 7.99765C90.3955 7.69929 91.1856 7.56526 91.9766 7.60497C92.7903 7.55439 93.6053 7.67999 94.366 7.9732C95.1267 8.26642 95.8152 8.72033 96.3845 9.30396C97.4973 10.6616 98.0527 12.3913 97.9383 14.1429C97.9383 14.3754 97.9358 14.5486 97.9324 14.664C97.9287 14.775 97.9191 14.8858 97.9035 14.9958H89.6148C89.5987 15.7773 89.8503 16.5409 90.3277 17.1598C90.5645 17.4102 90.8536 17.6052 91.1744 17.7311C91.4952 17.8569 91.8398 17.9105 92.1837 17.888C92.6729 17.9081 93.1583 17.7939 93.5873 17.5579C93.9745 17.3122 94.2772 16.9538 94.4546 16.531ZM89.6148 12.853H94.5013C94.5209 12.1654 94.2823 11.4954 93.8326 10.9749C93.5954 10.7501 93.3142 10.5768 93.0068 10.466C92.6993 10.3551 92.3723 10.3091 92.0462 10.3308C91.7321 10.3138 91.4179 10.3628 91.1239 10.4748C90.8299 10.5867 90.5627 10.7592 90.3396 10.9809C89.8882 11.502 89.632 12.1638 89.6148 12.853Z" fill="#17444C"/>
<path d="M106.308 18.7182C105.901 19.3426 105.333 19.8446 104.663 20.1702C103.925 20.5166 103.116 20.6876 102.301 20.6701C101.793 20.7025 101.283 20.6296 100.805 20.4558C100.326 20.282 99.8884 20.0112 99.5193 19.6602C98.8268 18.8701 98.4758 17.8377 98.5434 16.7892C98.5108 16.306 98.5809 15.8214 98.7492 15.3672C98.9174 14.913 99.1798 14.4996 99.5193 14.1542C100.45 13.4335 101.572 13.0008 102.746 12.9092C103.088 12.8566 103.536 12.7972 104.093 12.7302C105.5 12.5503 106.204 12.1503 106.206 11.5302C106.224 11.3283 106.191 11.1249 106.109 10.9395C106.027 10.754 105.899 10.5925 105.737 10.4702C105.256 10.2183 104.713 10.1074 104.172 10.1503C103.63 10.1162 103.091 10.2536 102.631 10.5432C102.456 10.6709 102.315 10.8403 102.221 11.0362C102.127 11.2321 102.083 11.4482 102.094 11.6651V11.8442H98.9898V11.6202C98.9649 11.0578 99.0742 10.4975 99.3085 9.98562C99.5428 9.47375 99.8955 9.02494 100.337 8.67621C101.419 7.90555 102.732 7.52767 104.058 7.60523C105.445 7.52229 106.828 7.82919 108.05 8.49121C108.489 8.75409 108.849 9.12999 109.093 9.57965C109.336 10.0293 109.455 10.5362 109.436 11.0473V17.9782C109.417 18.3645 109.471 18.751 109.596 19.1171C109.7 19.3648 109.891 19.5658 110.133 19.6823V20.2322H106.673C106.555 20.0131 106.467 19.7794 106.41 19.5372C106.348 19.2684 106.314 18.994 106.308 18.7182ZM106.25 14.2331C105.652 14.4985 105.026 14.6974 104.385 14.8263C103.679 14.9765 103.315 15.0552 103.292 15.0623C102.837 15.1581 102.415 15.3707 102.067 15.6792C101.821 15.9602 101.695 16.3265 101.717 16.6993C101.708 16.8997 101.743 17.0996 101.821 17.2847C101.898 17.4699 102.015 17.6357 102.164 17.7703C102.499 18.0494 102.927 18.1916 103.362 18.1683C103.747 18.1903 104.132 18.1357 104.496 18.0078C104.859 17.8799 105.194 17.6812 105.48 17.4232C105.742 17.1557 105.946 16.8368 106.079 16.4865C106.211 16.1362 106.269 15.7621 106.25 15.3881V14.2331Z" fill="#17444C"/>
<path d="M111.401 20.232V8.04297H114.484V10.1281C114.829 9.39672 115.351 8.76268 116.002 8.28313C116.615 7.881 117.337 7.67581 118.07 7.69502C118.197 7.69502 118.3 7.69672 118.371 7.70096C118.443 7.70521 118.503 7.7103 118.549 7.71709L118.561 11.0251H117.453C117.083 10.9972 116.711 11.0445 116.36 11.1641C116.008 11.2837 115.685 11.4731 115.409 11.721C115.164 12.0026 114.977 12.3299 114.86 12.684C114.742 13.0381 114.696 13.412 114.724 13.784V20.232H111.401Z" fill="#17444C"/>
<path d="M119.438 20.232V8.04293H122.694V9.48987C123.128 8.92272 123.691 8.46716 124.337 8.16089C124.999 7.85849 125.721 7.7069 126.449 7.71705C127.006 7.67357 127.567 7.74415 128.096 7.9245C128.625 8.10485 129.112 8.39117 129.526 8.76598C130.27 9.64177 130.638 10.7763 130.549 11.9221V20.232H127.226V12.8649C127.284 12.2079 127.126 11.5501 126.776 10.9911C126.59 10.7917 126.362 10.6375 126.107 10.5404C125.853 10.4433 125.58 10.4059 125.309 10.431C124.968 10.413 124.627 10.465 124.307 10.5836C123.987 10.7023 123.694 10.8851 123.447 11.121C123.212 11.3713 123.03 11.6668 122.912 11.9896C122.794 12.3124 122.742 12.6558 122.761 12.999V20.232H119.438Z" fill="#17444C"/>
<path d="M140.12 16.531H143.431C143.141 17.7498 142.421 18.8231 141.403 19.5539C140.312 20.3049 139.01 20.6879 137.686 20.6469C136.887 20.6841 136.09 20.5439 135.352 20.2365C134.614 19.9291 133.953 19.4621 133.417 18.869C132.308 17.5167 131.746 15.7988 131.841 14.053C131.745 12.34 132.299 10.654 133.393 9.33195C133.932 8.75135 134.592 8.29588 135.326 7.99752C136.06 7.69917 136.851 7.56518 137.642 7.60496C138.456 7.55479 139.27 7.68058 140.031 7.97377C140.791 8.26696 141.48 8.72066 142.049 9.30395C143.161 10.6622 143.715 12.3916 143.601 14.1429C143.601 14.3754 143.599 14.5486 143.595 14.664C143.592 14.775 143.582 14.8858 143.566 14.9958H135.277C135.263 15.777 135.515 16.5399 135.99 17.1598C136.227 17.4099 136.516 17.6048 136.837 17.7306C137.158 17.8564 137.502 17.9102 137.846 17.888C138.336 17.9081 138.822 17.7939 139.252 17.5579C139.638 17.3115 139.941 16.9534 140.12 16.531ZM135.277 12.853H140.164C140.183 12.1657 139.945 11.496 139.497 10.9749C139.259 10.7499 138.978 10.5765 138.67 10.4657C138.363 10.3548 138.035 10.3089 137.709 10.3308C137.395 10.3139 137.081 10.363 136.787 10.475C136.493 10.587 136.225 10.7593 136.002 10.9809C135.551 11.5019 135.295 12.1638 135.277 12.853Z" fill="#17444C"/>
<path d="M144.856 20.232V8.04297H147.94V10.1281C148.286 9.39694 148.808 8.76303 149.459 8.28313C150.071 7.88101 150.792 7.67581 151.525 7.69502C151.655 7.69502 151.755 7.69672 151.829 7.70096C151.888 7.70338 151.946 7.70876 152.005 7.71709L152.016 11.0251H150.908C150.539 10.9971 150.167 11.0443 149.816 11.1639C149.465 11.2835 149.142 11.473 148.866 11.721C148.62 12.0023 148.433 12.3295 148.316 12.6837C148.198 13.0378 148.151 13.4118 148.179 13.784V20.232H144.856Z" fill="#17444C"/>
<path d="M152.2 16.2627H155.511C155.507 16.5314 155.568 16.7971 155.687 17.0379C155.806 17.2787 155.981 17.4877 156.197 17.6477C156.775 17.9895 157.444 18.1476 158.115 18.1009C158.635 18.13 159.153 18.0199 159.617 17.7818C159.78 17.6949 159.915 17.5646 160.009 17.4054C160.102 17.2462 160.15 17.0643 160.146 16.8797C160.146 16.3253 159.484 15.9103 158.159 15.6347C157.62 15.5227 157.189 15.4251 156.87 15.3428C155.656 15.1193 154.508 14.6292 153.507 13.9078C153.193 13.6269 152.947 13.28 152.784 12.8921C152.621 12.5042 152.546 12.0851 152.565 11.6648C152.542 11.0967 152.656 10.5314 152.895 10.0157C153.134 9.50001 153.493 9.04861 153.941 8.69878C155.022 7.91851 156.337 7.53241 157.668 7.60488C159.057 7.52597 160.432 7.90881 161.581 8.69369C162.05 9.05428 162.43 9.51765 162.692 10.0482C162.954 10.5787 163.091 11.1622 163.092 11.7539H159.862C159.861 11.5214 159.807 11.2923 159.703 11.0843C159.599 10.8763 159.448 10.6951 159.263 10.5548C158.799 10.2455 158.248 10.0959 157.691 10.1287C157.205 10.097 156.719 10.1935 156.283 10.4088C156.135 10.4926 156.014 10.6155 155.933 10.764C155.851 10.9124 155.812 11.0806 155.82 11.2498C155.82 11.7361 156.645 12.1661 158.296 12.5397C158.677 12.6221 158.978 12.6891 159.199 12.7409C160.418 12.9362 161.576 13.4082 162.584 14.1208C162.893 14.4103 163.134 14.7643 163.291 15.1577C163.448 15.551 163.517 15.9741 163.492 16.3968C163.526 17.0064 163.407 17.6148 163.147 18.167C162.887 18.7193 162.493 19.1979 162.002 19.5597C160.707 20.3666 159.191 20.7469 157.668 20.6468C156.239 20.7312 154.824 20.3322 153.649 19.5139C153.176 19.1483 152.797 18.6744 152.545 18.132C152.292 17.5895 152.174 16.9945 152.2 16.3968V16.2627Z" fill="#17444C"/>
<path d="M74.3579 27.3453H77.8526V37.7072C77.7678 38.7029 78.0437 39.6959 78.63 40.5052C78.9528 40.8212 79.3403 41.0634 79.7657 41.2152C80.1912 41.367 80.6445 41.4247 81.0944 41.3844C81.5487 41.4255 82.0065 41.3687 82.4369 41.2177C82.8673 41.0668 83.2604 40.8253 83.5894 40.5094C84.1813 39.7011 84.4597 38.7053 84.3727 37.7072V27.3453H87.8327V38.0772C87.8885 38.9326 87.7632 39.7902 87.4651 40.5939C87.1669 41.3976 86.7025 42.1294 86.1023 42.7414C84.7138 43.9084 82.9269 44.4916 81.1173 44.3682C79.2987 44.4918 77.5021 43.9114 76.0993 42.7473C75.4952 42.1363 75.0277 41.4042 74.7275 40.5991C74.4273 39.7941 74.3013 38.9345 74.3579 38.0772V27.3453Z" fill="#17444C"/>
<path d="M90.002 43.9078V31.7188H93.2573V33.1657C93.6917 32.5986 94.2549 32.143 94.9003 31.8367C95.5629 31.5342 96.2843 31.3826 97.0126 31.3929C97.5699 31.3494 98.1302 31.42 98.6592 31.6003C99.1883 31.7807 99.6751 32.067 100.09 32.4418C100.834 33.3176 101.202 34.4521 101.112 35.5979V43.9078H97.79V36.5404C97.8475 35.8834 97.6893 35.2256 97.3393 34.6666C97.1539 34.4672 96.9252 34.313 96.6708 34.2159C96.4164 34.1188 96.1431 34.0814 95.872 34.1065C95.5312 34.0885 95.1902 34.1405 94.8702 34.2591C94.5501 34.3778 94.2577 34.5606 94.0109 34.7965C93.7755 35.0468 93.5932 35.3423 93.4752 35.6651C93.3572 35.9879 93.3059 36.3313 93.3244 36.6745V43.9075L90.002 43.9078Z" fill="#17444C"/>
<path d="M103.099 27.3899H106.421V30.3623H103.099V27.3899ZM103.099 31.7189H106.421V43.9079H103.099V31.7189Z" fill="#17444C"/>
<path d="M111.514 43.9079L107.049 31.7188H110.725L113.273 40.4649L115.842 31.7188H119.346L114.904 43.9079H111.514Z" fill="#17444C"/>
<path d="M127.559 40.2066H130.87C130.58 41.4253 129.86 42.4986 128.843 43.2294C127.752 43.9805 126.449 44.3634 125.126 44.3225C124.327 44.3596 123.53 44.2195 122.792 43.9121C122.053 43.6047 121.392 43.1377 120.856 42.5446C119.748 41.1923 119.186 39.4743 119.28 37.7285C119.185 36.0155 119.739 34.3296 120.832 33.0075C121.372 32.4269 122.031 31.9714 122.765 31.6731C123.5 31.3747 124.29 31.2407 125.081 31.2805C125.895 31.2304 126.71 31.3562 127.47 31.6493C128.231 31.9425 128.919 32.3962 129.488 32.9795C130.6 34.3377 131.155 36.0671 131.041 37.8185C131.041 38.051 131.038 38.2241 131.035 38.3395C131.031 38.4506 131.021 38.5614 131.006 38.6714H122.717C122.703 39.4526 122.955 40.2155 123.43 40.8354C123.667 41.0855 123.956 41.2803 124.277 41.4062C124.598 41.532 124.942 41.5857 125.286 41.5635C125.776 41.5836 126.262 41.4695 126.691 41.2334C127.078 40.9871 127.381 40.6289 127.559 40.2066ZM122.717 36.5285H127.604C127.623 35.8413 127.385 35.1716 126.937 34.6505C126.699 34.4255 126.418 34.2521 126.11 34.1412C125.802 34.0304 125.475 33.9845 125.149 34.0064C124.835 33.9895 124.52 34.0386 124.226 34.1506C123.933 34.2625 123.665 34.4349 123.442 34.6564C122.991 35.1775 122.734 35.8393 122.717 36.5285Z" fill="#17444C"/>
<path d="M132.297 43.9078V31.7187H135.38V33.8039C135.726 33.0727 136.248 32.4388 136.899 31.9589C137.512 31.5568 138.233 31.3516 138.966 31.3708C139.095 31.3708 139.195 31.3725 139.269 31.3767C139.328 31.3792 139.387 31.3845 139.445 31.3929L139.457 34.7009H138.349C137.979 34.6729 137.607 34.7201 137.256 34.8397C136.905 34.9593 136.582 35.1488 136.306 35.3968C136.061 35.6781 135.874 36.0053 135.756 36.3594C135.638 36.7136 135.591 37.0876 135.619 37.4598V43.9078H132.297Z" fill="#17444C"/>
<path d="M139.639 39.9385H142.951C142.947 40.2072 143.007 40.4729 143.127 40.7137C143.246 40.9545 143.42 41.1635 143.636 41.3235C144.215 41.6653 144.884 41.8234 145.554 41.7767C146.074 41.8058 146.593 41.6957 147.056 41.4576C147.219 41.3707 147.355 41.2404 147.448 41.0812C147.542 40.922 147.589 40.7401 147.586 40.5555C147.586 40.0011 146.923 39.5861 145.598 39.3106C145.06 39.1985 144.628 39.1009 144.309 39.0186C143.096 38.7951 141.947 38.305 140.946 37.5836C140.633 37.3027 140.386 36.9558 140.223 36.5679C140.06 36.18 139.985 35.7609 140.004 35.3406C139.982 34.7725 140.095 34.2073 140.335 33.6915C140.574 33.1758 140.932 32.7244 141.381 32.3746C142.461 31.5943 143.777 31.2082 145.108 31.2807C146.496 31.2018 147.872 31.5846 149.02 32.3695C149.489 32.7301 149.869 33.1935 150.131 33.724C150.393 34.2545 150.53 34.838 150.532 35.4297H147.302C147.301 35.1972 147.246 34.9681 147.142 34.7601C147.038 34.5521 146.888 34.3709 146.702 34.2306C146.239 33.9213 145.687 33.7717 145.131 33.8046C144.645 33.7728 144.159 33.8693 143.722 34.0846C143.575 34.1684 143.454 34.2914 143.372 34.4398C143.29 34.5882 143.251 34.7564 143.259 34.9256C143.259 35.4119 144.085 35.8419 145.736 36.2155C146.117 36.2979 146.418 36.3649 146.639 36.4167C147.858 36.612 149.015 37.0841 150.023 37.7966C150.332 38.0861 150.574 38.4401 150.731 38.8335C150.888 39.2268 150.956 39.6499 150.931 40.0726C150.965 40.6822 150.847 41.2906 150.587 41.8428C150.326 42.3951 149.933 42.8737 149.441 43.2355C148.146 44.0424 146.63 44.4227 145.108 44.3226C143.679 44.4071 142.263 44.008 141.089 43.1897C140.615 42.8241 140.236 42.3502 139.984 41.8078C139.732 41.2653 139.614 40.6703 139.639 40.0726L139.639 39.9385Z" fill="#17444C"/>
<path d="M152.234 27.3899H155.557V30.3623H152.234V27.3899ZM152.234 31.7189H155.557V43.9079H152.234V31.7189Z" fill="#17444C"/>
<path d="M163.104 43.9978C162.8 44.0046 162.437 44.0176 162.014 44.0368C161.593 44.0555 161.324 44.0648 161.21 44.0648C160.283 44.169 159.351 43.9185 158.6 43.3639C158.133 42.8971 157.899 41.9758 157.899 40.5998V34.0067H156.254V31.7188H157.899V28.3878H161.187V31.7188H163.104V34.0067H161.187V40.7568C161.17 40.872 161.181 40.9894 161.219 41.0995C161.256 41.2096 161.32 41.3092 161.403 41.3899C161.682 41.5187 161.989 41.5711 162.295 41.5418H163.104V43.9978Z" fill="#17444C"/>
<path d="M164.579 48.7973V46.1614C164.685 46.1775 164.795 46.1877 164.909 46.1953C165.023 46.203 165.172 46.2072 165.356 46.2072C165.887 46.2471 166.413 46.0849 166.829 45.7532C167.002 45.5734 167.135 45.3591 167.22 45.1242C167.304 44.8893 167.339 44.6392 167.32 44.3903C167.318 44.3335 167.311 44.2771 167.296 44.2222C167.284 44.1654 167.269 44.1093 167.25 44.0542L162.775 31.7183H166.429L169.043 40.5094L171.589 31.7183H175.082L169.98 46.0952C169.742 46.9585 169.244 47.7276 168.553 48.2974C167.773 48.7433 166.879 48.9485 165.982 48.8872C165.777 48.8872 165.557 48.8796 165.321 48.8643C165.085 48.849 164.838 48.827 164.579 48.7973Z" fill="#17444C"/>
<path d="M196.346 38.2336C196.316 39.0934 196.103 39.937 195.722 40.7084C195.342 41.4799 194.801 42.1616 194.137 42.7085C192.636 43.8665 190.773 44.4545 188.879 44.3676C187.803 44.4298 186.727 44.2575 185.724 43.8626C184.722 43.4677 183.817 42.8596 183.072 42.0805C181.69 40.5555 180.999 38.4172 181 35.6656C181 32.8549 181.704 30.7019 183.113 29.2066C184.52 27.7113 186.544 26.9636 189.186 26.9636C191.011 26.8619 192.813 27.408 194.274 28.5056C194.904 29.0453 195.413 29.7127 195.766 30.4636C196.119 31.2146 196.309 32.0319 196.323 32.8617H192.909C192.817 32.024 192.399 31.2563 191.744 30.7257C190.998 30.2013 190.097 29.9428 189.186 29.9916C188.535 29.9487 187.883 30.0571 187.281 30.3081C186.679 30.5591 186.143 30.946 185.715 31.4385C184.843 32.6682 184.424 34.1618 184.528 35.6656C184.435 37.1468 184.852 38.6153 185.709 39.8265C186.456 40.6309 187.465 41.1415 188.556 41.2659C189.646 41.3903 190.745 41.1202 191.653 40.5046C192.349 39.9316 192.812 39.1239 192.954 38.2336H196.346Z" fill="#17444C"/>
<path d="M197.259 37.7968C197.21 36.9292 197.332 36.0605 197.62 35.2406C197.908 34.4207 198.356 33.6659 198.937 33.0198C200.211 31.8991 201.85 31.2809 203.547 31.2809C205.244 31.2809 206.883 31.8991 208.157 33.0198C208.74 33.6652 209.188 34.4197 209.477 35.2397C209.766 36.0597 209.889 36.9288 209.84 37.7968C209.89 38.6665 209.767 39.5374 209.478 40.3593C209.189 41.1811 208.74 41.9376 208.157 42.5848C206.883 43.705 205.244 44.3229 203.547 44.3229C201.85 44.3229 200.211 43.705 198.937 42.5848C198.355 41.9368 197.907 41.1801 197.62 40.3584C197.332 39.5367 197.209 38.6661 197.259 37.7968ZM200.628 37.7968C200.565 38.7891 200.831 39.7746 201.386 40.5999C201.641 40.9265 201.97 41.1868 202.347 41.3585C202.724 41.5302 203.137 41.6083 203.551 41.586C203.96 41.6064 204.369 41.5274 204.742 41.3556C205.114 41.1839 205.44 40.9246 205.69 40.5999C206.187 39.7522 206.449 38.7879 206.45 37.8057C206.451 36.8234 206.191 35.8585 205.696 35.0098C205.444 34.6853 205.118 34.4266 204.744 34.2558C204.37 34.0849 203.961 34.0071 203.551 34.0288C203.138 34.0064 202.725 34.0838 202.348 34.2546C201.971 34.4254 201.641 34.6844 201.386 35.0098C200.832 35.8292 200.565 36.8095 200.628 37.7968Z" fill="#17444C"/>
<path d="M214.603 27.3899H211.28V43.9079H214.603V27.3899Z" fill="#17444C"/>
<path d="M220.094 27.3899H216.771V43.9079H220.094V27.3899Z" fill="#17444C"/>
<path d="M229.802 40.2065H233.114C232.824 41.4252 232.105 42.4985 231.088 43.2294C229.997 43.9804 228.695 44.3634 227.371 44.3225C226.572 44.36 225.775 44.2201 225.037 43.9127C224.298 43.6052 223.637 43.138 223.101 42.5446C221.993 41.1926 221.43 39.4744 221.525 37.7285C221.429 36.0154 221.983 34.3289 223.078 33.0075C223.616 32.427 224.276 31.9716 225.009 31.6732C225.743 31.3748 226.533 31.2408 227.324 31.2805C228.138 31.2299 228.953 31.3555 229.714 31.6487C230.474 31.942 231.163 32.3959 231.732 32.9795C232.845 34.3371 233.4 36.0668 233.286 37.8185C233.286 38.051 233.284 38.2241 233.28 38.3395C233.276 38.4506 233.267 38.5613 233.251 38.6713H224.962C224.946 39.4529 225.198 40.2164 225.675 40.8354C225.912 41.0857 226.201 41.2807 226.522 41.4066C226.843 41.5325 227.187 41.586 227.531 41.5635C228.021 41.5836 228.506 41.4695 228.935 41.2334C229.322 40.9877 229.625 40.6294 229.802 40.2065ZM224.962 36.5285H229.849C229.869 35.8409 229.63 35.171 229.18 34.6505C228.943 34.4257 228.662 34.2524 228.354 34.1415C228.047 34.0307 227.72 33.9847 227.394 34.0064C227.08 33.9893 226.766 34.0383 226.472 34.1503C226.178 34.2623 225.91 34.4347 225.687 34.6564C225.236 35.1775 224.98 35.8393 224.962 36.5285Z" fill="#17444C"/>
<path d="M234.256 45.0851L237.886 45.0741C237.928 45.2635 238.008 45.4424 238.121 45.6002C238.234 45.7581 238.378 45.8917 238.543 45.9932C238.951 46.2139 239.411 46.3187 239.873 46.2961C240.259 46.3374 240.65 46.3017 241.022 46.191C241.394 46.0803 241.741 45.8968 242.041 45.6512C242.531 44.959 242.75 44.1118 242.658 43.269V42.1811C242.341 42.7405 241.867 43.1946 241.294 43.4871C240.638 43.7885 239.92 43.9327 239.199 43.9081C238.47 43.9363 237.744 43.7991 237.076 43.5068C236.408 43.2144 235.814 42.7745 235.341 42.2201C234.324 40.9507 233.809 39.353 233.89 37.7291C233.8 36.0433 234.303 34.379 235.311 33.025C235.769 32.4556 236.354 32.0013 237.02 31.6985C237.685 31.3957 238.412 31.2527 239.143 31.2811C239.884 31.2594 240.618 31.4212 241.282 31.7521C241.891 32.0837 242.392 32.5817 242.728 33.188V31.719H245.879V43.101C245.918 44.0898 245.795 45.0784 245.513 46.0271C245.27 46.6996 244.837 47.2877 244.268 47.721C243.695 48.1341 243.045 48.4292 242.357 48.5892C241.492 48.7985 240.603 48.8986 239.713 48.887C238.336 48.9625 236.969 48.6142 235.796 47.889C235.336 47.5769 234.956 47.1599 234.689 46.6725C234.421 46.185 234.273 45.641 234.256 45.0851ZM237.258 37.6171C237.198 38.549 237.445 39.4748 237.961 40.2529C238.209 40.5413 238.517 40.7727 238.863 40.9313C239.208 41.0899 239.584 41.172 239.965 41.172C240.345 41.172 240.721 41.0899 241.067 40.9313C241.413 40.7727 241.72 40.5413 241.968 40.2529C242.48 39.4559 242.721 38.5159 242.658 37.5712C242.716 36.6543 242.464 35.7447 241.945 34.9871C241.705 34.6842 241.395 34.4431 241.043 34.2841C240.69 34.1251 240.305 34.0528 239.919 34.0731C239.54 34.055 239.163 34.1304 238.821 34.2928C238.478 34.4552 238.181 34.6995 237.955 35.0041C237.446 35.7767 237.202 36.6936 237.258 37.6171Z" fill="#17444C"/>
<path d="M255.516 40.2065H258.828C258.538 41.4252 257.819 42.4985 256.802 43.2294C255.711 43.9804 254.409 44.3634 253.085 44.3225C252.286 44.36 251.489 44.2201 250.751 43.9127C250.012 43.6052 249.351 43.138 248.815 42.5446C247.706 41.1926 247.144 39.4744 247.239 37.7285C247.143 36.0154 247.697 34.3289 248.792 33.0075C249.33 32.427 249.99 31.9716 250.723 31.6732C251.457 31.3748 252.247 31.2408 253.038 31.2805C253.852 31.2299 254.667 31.3555 255.428 31.6487C256.188 31.942 256.877 32.3959 257.446 32.9795C258.559 34.3371 259.114 36.0668 259 37.8185C259 38.051 258.998 38.2241 258.994 38.3395C258.99 38.4506 258.981 38.5613 258.965 38.6713H250.676C250.66 39.4529 250.912 40.2164 251.389 40.8354C251.626 41.0857 251.915 41.2807 252.236 41.4066C252.557 41.5325 252.901 41.586 253.245 41.5635C253.734 41.5836 254.22 41.4695 254.649 41.2334C255.036 40.9877 255.339 40.6294 255.516 40.2065ZM250.676 36.5285H255.563C255.582 35.8409 255.344 35.171 254.894 34.6505C254.657 34.4257 254.376 34.2524 254.068 34.1415C253.761 34.0307 253.434 33.9847 253.108 34.0064C252.794 33.9893 252.479 34.0383 252.185 34.1503C251.891 34.2623 251.624 34.4347 251.401 34.6564C250.95 35.1775 250.693 35.8393 250.676 36.5285Z" fill="#17444C"/>
<path d="M73.5537 60.3784V52.8059H74.6111V59.4228H78.4521V60.3784H73.5537Z" fill="#17444C"/>
<path d="M82.9538 58.6002H83.8856C83.8092 59.1635 83.5209 59.6764 83.0794 60.0344C82.6074 60.3955 82.0243 60.5806 81.4305 60.5581C81.0855 60.5745 80.7413 60.5138 80.4227 60.3805C80.1042 60.2473 79.8193 60.0447 79.5889 59.7875C79.1119 59.1943 78.8715 58.4454 78.9142 57.6854C78.8665 56.8952 79.1038 56.1141 79.583 55.484C79.8106 55.2205 80.0953 55.0123 80.4154 54.8753C80.7355 54.7382 81.0827 54.6759 81.4305 54.6931C81.7765 54.6722 82.123 54.7265 82.446 54.8524C82.769 54.9782 83.061 55.1726 83.3017 55.4221C83.7756 56.0008 84.0125 56.7378 83.9645 57.4843C83.9645 57.5971 83.9628 57.6812 83.9628 57.7363C83.9611 57.7915 83.9552 57.8441 83.9492 57.8959H79.902C79.8816 58.3825 80.038 58.86 80.3425 59.2401C80.6225 59.51 80.9866 59.6755 81.3741 59.7091C81.7615 59.7426 82.1487 59.642 82.4709 59.4243C82.7272 59.2179 82.899 58.9247 82.9538 58.6002ZM79.8978 57.1244H82.975C83.0002 56.6912 82.8577 56.2648 82.577 55.9338C82.2715 55.6654 81.8792 55.5168 81.4726 55.5154C81.066 55.514 80.6727 55.6599 80.3654 55.9262C80.0744 56.2587 79.9089 56.6827 79.8978 57.1244Z" fill="#17444C"/>
<path d="M88.5079 59.6432C88.2421 59.9258 87.9254 60.1558 87.5744 60.3213C87.2451 60.4723 86.8869 60.5499 86.5247 60.5487C86.0384 60.5777 85.5593 60.4205 85.1847 60.1091C85.0215 59.9531 84.894 59.7636 84.811 59.5537C84.7279 59.3438 84.6912 59.1184 84.7035 58.893C84.6916 58.6741 84.7279 58.4553 84.8097 58.2519C84.8915 58.0486 85.0169 57.8656 85.177 57.7159C85.5914 57.3916 86.0938 57.1997 86.6188 57.1651C86.7835 57.1482 87.0041 57.1244 87.2842 57.0939C87.5812 57.0769 87.8757 57.0302 88.1634 56.9547C88.2525 56.929 88.329 56.8713 88.3781 56.7926C88.4239 56.6526 88.4418 56.505 88.4307 56.3581C88.4381 56.2343 88.4128 56.1107 88.3574 55.9998C88.302 55.8888 88.2184 55.7944 88.115 55.7258C87.8262 55.566 87.4973 55.4929 87.1679 55.5154C86.8202 55.4908 86.474 55.5811 86.1827 55.7725C86.0702 55.8632 85.9813 55.9797 85.9234 56.1121C85.8655 56.2444 85.8403 56.3888 85.85 56.5329H84.9589V56.492C84.9484 56.2411 84.9969 55.9913 85.1007 55.7627C85.2045 55.534 85.3606 55.333 85.5563 55.1758C86.0317 54.8297 86.6123 54.6591 87.1993 54.6929C87.7822 54.6477 88.3641 54.7927 88.8576 55.1062C89.0417 55.2646 89.1857 55.4644 89.2777 55.6892C89.3698 55.914 89.4073 56.1574 89.3871 56.3995V59.155C89.3705 59.3117 89.3982 59.4699 89.4669 59.6116C89.5025 59.6496 89.5466 59.6788 89.5955 59.6968C89.6444 59.7148 89.6969 59.721 89.7487 59.7152C89.783 59.7147 89.8173 59.7122 89.8513 59.7075C89.8921 59.7024 89.9405 59.6948 89.9965 59.6846V60.3983C89.8971 60.4259 89.7962 60.4477 89.6943 60.4637C89.6136 60.4745 89.5322 60.4802 89.4508 60.4806C89.199 60.4996 88.9486 60.4289 88.7439 60.2812C88.6617 60.204 88.5978 60.1093 88.557 60.0041C88.5162 59.899 88.4994 59.786 88.5079 59.6736V59.6432ZM88.4188 57.5767C88.0083 57.7512 87.572 57.857 87.1272 57.8899C86.9108 57.9179 86.7487 57.94 86.6409 57.9578C86.3705 57.981 86.1131 58.0844 85.9018 58.2548C85.8227 58.3382 85.7618 58.437 85.723 58.5451C85.6841 58.6532 85.6681 58.7682 85.676 58.8828C85.6691 59.0011 85.6892 59.1194 85.7348 59.2288C85.7804 59.3382 85.8502 59.4358 85.9391 59.5142C86.1537 59.6752 86.419 59.7538 86.6867 59.7357C87.1327 59.7547 87.572 59.6225 87.9334 59.3606C88.0857 59.2512 88.2094 59.1067 88.2939 58.9393C88.3784 58.7719 88.4213 58.5866 88.4188 58.3991V57.5767Z" fill="#17444C"/>
<path d="M90.8633 60.3788V54.8728H91.7739V55.8598C91.894 55.5302 92.106 55.2419 92.3849 55.029C92.6628 54.84 92.9935 54.744 93.3294 54.7549C93.399 54.7549 93.4499 54.7557 93.4805 54.7566C93.5125 54.7589 93.5442 54.7634 93.5755 54.7701V55.7461C93.5501 55.7435 93.5229 55.741 93.4924 55.7384C93.4593 55.7376 93.4126 55.7367 93.3507 55.7367C93.1416 55.7221 92.9318 55.7503 92.7341 55.8196C92.5364 55.8889 92.3549 55.9979 92.2007 56.1398C92.061 56.3002 91.9542 56.4866 91.8866 56.6883C91.8191 56.89 91.792 57.103 91.807 57.3152V60.3788H90.8633Z" fill="#17444C"/>
<path d="M98.1571 60.3788V56.991C98.1956 56.5987 98.106 56.2045 97.9017 55.8674C97.7891 55.7534 97.6523 55.6662 97.5014 55.6123C97.3506 55.5584 97.1895 55.5391 97.0301 55.556C96.8065 55.5425 96.5825 55.5745 96.3715 55.6501C96.1606 55.7256 95.9672 55.8432 95.803 55.9956C95.6505 56.1636 95.5333 56.3605 95.4582 56.5746C95.3831 56.7887 95.3518 57.0158 95.366 57.2422V60.3788H94.4248V54.8728H95.3252V55.6748C95.5172 55.3766 95.7821 55.1324 96.0949 54.9653C96.4144 54.8054 96.768 54.7259 97.1252 54.7336C97.4905 54.723 97.854 54.7871 98.1936 54.922C98.4695 55.0356 98.7032 55.2323 98.8624 55.4847C98.954 55.6284 99.0184 55.7878 99.0525 55.9548C99.0978 56.2376 99.1166 56.524 99.1085 56.8103V60.3788H98.1571Z" fill="#17444C"/>
<path d="M101.807 59.2327H100.734V60.3792H101.807V59.2327Z" fill="#17444C"/>
<path d="M105.647 60.3788L108.51 52.8063H109.666L112.54 60.3788H111.404L110.588 58.1163H107.551L106.729 60.3788H105.647ZM107.876 57.2329H110.279L109.086 53.8909L107.876 57.2329Z" fill="#17444C"/>
<path d="M116.947 56.7031C116.944 56.5367 116.905 56.373 116.833 56.2228C116.761 56.0726 116.659 55.9392 116.532 55.8315C116.236 55.613 115.874 55.5049 115.507 55.526C115.282 55.5143 115.057 55.5571 114.852 55.651C114.647 55.7448 114.467 55.8868 114.329 56.0649C114.023 56.5191 113.877 57.0617 113.913 57.6078C113.879 58.1544 114.018 58.6978 114.312 59.1599C114.441 59.3376 114.612 59.4804 114.81 59.5755C115.008 59.6706 115.226 59.715 115.445 59.7048C115.826 59.7239 116.201 59.6052 116.501 59.3704C116.779 59.1188 116.953 58.7727 116.99 58.3995H117.891C117.883 58.6987 117.814 58.993 117.689 59.2647C117.563 59.5365 117.384 59.78 117.162 59.9806C116.666 60.3798 116.039 60.5819 115.403 60.5483C115.062 60.5649 114.723 60.5036 114.409 60.3691C114.096 60.2345 113.818 60.0302 113.595 59.7718C113.162 59.138 112.933 58.3872 112.939 57.6197C112.944 56.8521 113.183 56.1045 113.625 55.4768C113.861 55.2141 114.152 55.0074 114.477 54.8717C114.803 54.7361 115.155 54.6749 115.507 54.6927C116.12 54.6619 116.722 54.8547 117.203 55.2349C117.414 55.4172 117.583 55.6425 117.7 55.8958C117.817 56.149 117.878 56.4243 117.879 56.7031H116.947Z" fill="#17444C"/>
<path d="M122.586 60.3788V56.991C122.625 56.5981 122.535 56.2031 122.33 55.8657C122.218 55.7521 122.081 55.6653 121.93 55.6117C121.779 55.5581 121.618 55.539 121.459 55.5559C121.014 55.5333 120.579 55.6856 120.245 55.9803C120.094 56.1283 119.975 56.3067 119.897 56.5039C119.82 56.7011 119.785 56.9125 119.795 57.1242V60.3788H118.854V52.8063H119.795V55.6484C119.959 55.3574 120.205 55.1208 120.502 54.9678C120.829 54.8055 121.19 54.7251 121.554 54.7336C121.919 54.723 122.283 54.7871 122.622 54.922C122.898 55.0356 123.132 55.2322 123.291 55.4847C123.383 55.6284 123.447 55.7878 123.481 55.9548C123.527 56.2376 123.545 56.524 123.537 56.8102V60.3788H122.586Z" fill="#17444C"/>
<path d="M124.95 52.8059H125.891V53.8591H124.95V52.8059ZM124.95 54.8724H125.891V60.3788H124.95V54.8724Z" fill="#17444C"/>
<path d="M131.108 58.6002H132.039C131.962 59.163 131.674 59.6755 131.233 60.0344C130.761 60.3953 130.178 60.5805 129.584 60.5581C129.239 60.5747 128.895 60.5141 128.576 60.3808C128.257 60.2475 127.972 60.0448 127.741 59.7875C127.265 59.1939 127.025 58.4453 127.066 57.6854C127.019 56.895 127.257 56.1139 127.737 55.484C127.965 55.2206 128.249 55.0125 128.569 54.8754C128.889 54.7384 129.237 54.676 129.584 54.6931C129.93 54.6723 130.277 54.7268 130.6 54.8526C130.923 54.9784 131.215 55.1727 131.456 55.4221C131.928 56.0015 132.164 56.7381 132.117 57.4843C132.117 57.5971 132.117 57.6812 132.115 57.7363C132.114 57.7897 132.109 57.843 132.101 57.8959H128.056C128.034 58.3824 128.19 58.8602 128.495 59.2401C128.775 59.51 129.139 59.6755 129.526 59.7091C129.914 59.7426 130.301 59.642 130.623 59.4243C130.88 59.2183 131.053 58.925 131.108 58.6002ZM128.05 57.1244H131.129C131.153 56.6913 131.011 56.2652 130.731 55.9338C130.425 55.6654 130.033 55.5168 129.627 55.5154C129.22 55.514 128.827 55.6599 128.519 55.9262C128.229 56.2591 128.063 56.6827 128.05 57.1244Z" fill="#17444C"/>
<path d="M134.556 60.3784L132.489 54.8724H133.498L135.064 59.2836L136.593 54.8724H137.602L135.557 60.3784H134.556Z" fill="#17444C"/>
<path d="M142.125 58.6002H143.057C142.979 59.163 142.691 59.6755 142.251 60.0344C141.779 60.3953 141.196 60.5805 140.602 60.5581C140.257 60.5747 139.912 60.5141 139.593 60.3808C139.274 60.2475 138.989 60.0448 138.759 59.7875C138.282 59.1939 138.042 58.4453 138.084 57.6854C138.037 56.895 138.275 56.1139 138.754 55.484C138.982 55.2206 139.267 55.0125 139.587 54.8754C139.907 54.7384 140.254 54.676 140.602 54.6931C140.948 54.6723 141.294 54.7268 141.617 54.8526C141.94 54.9784 142.232 55.1727 142.473 55.4221C142.946 56.0015 143.182 56.7381 143.134 57.4843C143.134 57.5971 143.134 57.6812 143.133 57.7363C143.131 57.7897 143.127 57.843 143.119 57.8959H139.074C139.052 58.3824 139.208 58.8602 139.512 59.2401C139.792 59.51 140.156 59.6755 140.544 59.7091C140.931 59.7426 141.319 59.642 141.641 59.4243C141.898 59.2183 142.07 58.925 142.125 58.6002ZM139.068 57.1244H142.146C142.171 56.6913 142.029 56.2652 141.748 55.9338C141.443 55.6654 141.051 55.5168 140.644 55.5154C140.238 55.514 139.844 55.6599 139.537 55.9262C139.246 56.2591 139.08 56.6827 139.068 57.1244Z" fill="#17444C"/>
<path d="M145.5 59.2327H144.428V60.3792H145.5V59.2327Z" fill="#17444C"/>
<path d="M149.84 57.8851H150.851C150.845 58.1308 150.893 58.3749 150.989 58.601C151.085 58.8271 151.229 59.03 151.41 59.1962C151.812 59.5371 152.329 59.7119 152.855 59.685C153.353 59.7124 153.847 59.5827 154.267 59.3142C154.431 59.2033 154.564 59.0529 154.654 58.8768C154.744 58.7007 154.788 58.5046 154.783 58.3068C154.783 57.7272 154.137 57.2868 152.846 56.9855C152.769 56.9685 152.708 56.9541 152.668 56.9448C151.924 56.8287 151.216 56.5506 150.592 56.1301C150.42 55.9668 150.285 55.7678 150.198 55.547C150.111 55.3262 150.073 55.0889 150.088 54.852C150.078 54.5407 150.141 54.2314 150.272 53.9487C150.402 53.6661 150.598 53.418 150.841 53.2243C151.417 52.7911 152.126 52.5737 152.846 52.6099C153.573 52.5689 154.289 52.799 154.856 53.2557C155.102 53.4785 155.296 53.7526 155.424 54.0587C155.553 54.3648 155.612 54.6953 155.598 55.0268L154.599 55.0319C154.596 54.8117 154.548 54.5944 154.457 54.3936C154.367 54.1928 154.236 54.0126 154.073 53.8642C153.705 53.5765 153.245 53.4323 152.778 53.4585C152.343 53.4366 151.912 53.5528 151.547 53.7904C151.402 53.8868 151.284 54.0182 151.204 54.1723C151.123 54.3264 151.083 54.4983 151.087 54.6721C151.087 55.2585 151.722 55.6956 152.993 55.9833C153.18 56.0274 153.325 56.0622 153.426 56.0851C153.447 56.0893 153.483 56.0978 153.536 56.1114C154.125 56.2084 154.687 56.4235 155.191 56.7436C155.395 56.9124 155.556 57.1266 155.662 57.3691C155.773 57.6278 155.829 57.9072 155.825 58.1889C155.837 58.5215 155.771 58.8523 155.632 59.1548C155.494 59.4574 155.286 59.7233 155.026 59.9311C154.404 60.3913 153.64 60.6203 152.867 60.5787C152.077 60.6272 151.298 60.379 150.681 59.8828C150.411 59.6256 150.197 59.3155 150.052 58.9717C149.907 58.628 149.835 58.258 149.84 57.8851Z" fill="#17444C"/>
<path d="M157.944 54.8725V58.2501C157.905 58.6442 157.996 59.0402 158.203 59.378C158.315 59.4934 158.453 59.5819 158.604 59.6369C158.756 59.6919 158.918 59.7119 159.079 59.6954C159.307 59.7113 159.535 59.6774 159.749 59.5961C159.963 59.5148 160.156 59.3879 160.316 59.2244C160.621 58.8295 160.769 58.3361 160.733 57.8385V54.8725H161.676V60.3788H160.776V59.5564C160.594 59.8621 160.331 60.1113 160.016 60.2761C159.676 60.4436 159.301 60.5265 158.922 60.518C158.572 60.5259 158.224 60.4591 157.902 60.3219C157.63 60.2067 157.398 60.0136 157.236 59.7669C157.146 59.6228 157.082 59.4635 157.049 59.2968C157.002 59.0141 156.983 58.7277 156.991 58.4413V54.8728L157.944 54.8725Z" fill="#17444C"/>
<path d="M166.832 56.7031C166.827 56.5366 166.788 56.373 166.716 56.2229C166.644 56.0727 166.541 55.9394 166.414 55.8315C166.12 55.613 165.758 55.5049 165.392 55.526C165.166 55.5144 164.941 55.5573 164.735 55.6511C164.53 55.7449 164.35 55.8868 164.211 56.0649C163.907 56.5198 163.761 57.0619 163.796 57.6077C163.761 58.1544 163.901 58.6978 164.195 59.1599C164.324 59.3374 164.495 59.4801 164.693 59.5752C164.891 59.6703 165.109 59.7148 165.328 59.7047C165.709 59.7245 166.084 59.6057 166.384 59.3704C166.662 59.119 166.837 58.7728 166.873 58.3995H167.773C167.765 58.6985 167.697 58.9927 167.572 59.2645C167.447 59.5362 167.268 59.7798 167.047 59.9805C166.55 60.3795 165.924 60.5816 165.287 60.5483C164.947 60.5648 164.607 60.5034 164.293 60.3689C163.98 60.2343 163.701 60.0301 163.478 59.7718C163.045 59.138 162.816 58.3872 162.821 57.6198C162.827 56.8523 163.066 56.1047 163.507 55.4768C163.743 55.2142 164.035 55.0076 164.361 54.872C164.687 54.7364 165.039 54.6751 165.392 54.6927C166.003 54.6615 166.605 54.8543 167.085 55.2349C167.296 55.4172 167.466 55.6424 167.583 55.8956C167.7 56.1488 167.762 56.4241 167.764 56.7031H166.832Z" fill="#17444C"/>
<path d="M172.46 56.7031C172.456 56.5367 172.417 56.373 172.346 56.2228C172.274 56.0726 172.171 55.9392 172.044 55.8315C171.749 55.613 171.387 55.5049 171.02 55.526C170.795 55.5143 170.57 55.5571 170.365 55.651C170.159 55.7448 169.98 55.8868 169.841 56.0649C169.536 56.5191 169.39 57.0617 169.425 57.6078C169.391 58.1544 169.531 58.6978 169.825 59.1599C169.954 59.3376 170.125 59.4804 170.323 59.5755C170.521 59.6706 170.739 59.715 170.958 59.7048C171.339 59.7239 171.714 59.6052 172.014 59.3704C172.292 59.1188 172.466 58.7727 172.503 58.3995H173.404C173.396 58.6987 173.327 58.993 173.201 59.2647C173.076 59.5365 172.897 59.78 172.675 59.9806C172.178 60.3798 171.552 60.5819 170.916 60.5483C170.575 60.5649 170.235 60.5036 169.922 60.3691C169.609 60.2345 169.33 60.0302 169.108 59.7718C168.675 59.138 168.446 58.3872 168.451 57.6197C168.457 56.8521 168.696 56.1045 169.138 55.4768C169.373 55.2141 169.664 55.0074 169.99 54.8717C170.316 54.7361 170.668 54.6749 171.02 54.6927C171.632 54.6619 172.235 54.8547 172.716 55.2349C172.927 55.4172 173.096 55.6425 173.213 55.8958C173.329 56.149 173.391 56.4243 173.392 56.7031H172.46Z" fill="#17444C"/>
<path d="M178.138 58.6002H179.07C178.994 59.1635 178.705 59.6764 178.264 60.0344C177.792 60.3955 177.209 60.5806 176.615 60.5581C176.27 60.5745 175.926 60.5138 175.607 60.3805C175.289 60.2473 175.004 60.0447 174.773 59.7875C174.296 59.1943 174.056 58.4454 174.099 57.6854C174.051 56.8952 174.288 56.1141 174.768 55.484C174.995 55.2205 175.28 55.0123 175.6 54.8753C175.92 54.7382 176.267 54.6759 176.615 54.6931C176.961 54.6722 177.308 54.7265 177.631 54.8524C177.954 54.9782 178.246 55.1726 178.486 55.4221C178.96 56.0008 179.197 56.7378 179.149 57.4843C179.149 57.5971 179.147 57.6812 179.147 57.7363C179.146 57.7915 179.14 57.8441 179.134 57.8959H175.087C175.066 58.3825 175.223 58.86 175.527 59.2401C175.807 59.51 176.171 59.6755 176.559 59.7091C176.946 59.7426 177.333 59.642 177.655 59.4243C177.912 59.2179 178.084 58.9247 178.138 58.6002ZM175.082 57.1244H178.16C178.185 56.6912 178.042 56.2648 177.762 55.9338C177.456 55.6654 177.064 55.5168 176.657 55.5154C176.251 55.514 175.857 55.6599 175.55 55.9262C175.259 56.2587 175.094 56.6827 175.082 57.1244Z" fill="#17444C"/>
<path d="M184.001 58.6002H184.932C184.856 59.1635 184.568 59.6764 184.126 60.0344C183.654 60.3955 183.071 60.5806 182.477 60.5581C182.132 60.5745 181.788 60.5138 181.47 60.3805C181.151 60.2473 180.866 60.0447 180.636 59.7875C180.159 59.1943 179.918 58.4454 179.961 57.6854C179.913 56.8952 180.151 56.1141 180.63 55.484C180.857 55.2205 181.142 55.0123 181.462 54.8753C181.782 54.7382 182.13 54.6759 182.477 54.6931C182.823 54.6722 183.17 54.7265 183.493 54.8524C183.816 54.9782 184.108 55.1726 184.349 55.4221C184.822 56.0008 185.059 56.7378 185.011 57.4843C185.011 57.5971 185.01 57.6812 185.01 57.7363C185.008 57.7915 185.002 57.8441 184.996 57.8959H180.949C180.928 58.3825 181.085 58.86 181.389 59.2401C181.669 59.51 182.034 59.6755 182.421 59.7091C182.808 59.7426 183.196 59.642 183.518 59.4243C183.774 59.2179 183.946 58.9247 184.001 58.6002ZM180.945 57.1244H184.022C184.047 56.6912 183.905 56.2648 183.624 55.9338C183.318 55.6654 182.926 55.5168 182.52 55.5154C182.113 55.514 181.72 55.6599 181.412 55.9262C181.121 56.2587 180.956 56.6827 180.945 57.1244Z" fill="#17444C"/>
<path d="M190.989 52.8061V60.3788H190.078V59.6846C189.857 59.958 189.579 60.1792 189.262 60.3321C188.948 60.4786 188.605 60.5526 188.258 60.5485C187.919 60.5619 187.582 60.4978 187.272 60.361C186.962 60.2242 186.688 60.0184 186.47 59.7593C186 59.1574 185.763 58.4062 185.802 57.6436C185.761 56.8696 185.998 56.1064 186.471 55.4923C186.688 55.2312 186.962 55.0233 187.271 54.8847C187.581 54.7461 187.919 54.6805 188.258 54.6929C188.615 54.6856 188.97 54.7587 189.296 54.9067C189.604 55.0533 189.873 55.2729 190.078 55.5466V52.8063L190.989 52.8061ZM190.111 57.5873C190.15 57.04 190.002 56.4957 189.689 56.0445C189.535 55.8674 189.343 55.7284 189.126 55.6385C188.909 55.5485 188.675 55.51 188.441 55.526C188.205 55.514 187.97 55.5594 187.756 55.6581C187.541 55.7568 187.354 55.906 187.21 56.0929C186.893 56.5685 186.741 57.135 186.777 57.7053C186.746 58.2361 186.904 58.7606 187.223 59.1862C187.372 59.3644 187.561 59.5057 187.774 59.5992C187.986 59.6926 188.218 59.7357 188.45 59.7251C188.684 59.7373 188.918 59.6932 189.131 59.5967C189.344 59.5001 189.531 59.3538 189.677 59.1701C189.994 58.7057 190.147 58.1486 190.111 57.5873Z" fill="#17444C"/>
<path d="M193.747 59.2327H192.674V60.3792H193.747V59.2327Z" fill="#17444C"/>
</g>
<defs>
<clipPath id="clip0_1040_54">
<rect width="259" height="64.6055" fill="white" transform="translate(0 0.884186)"/>
</clipPath>
</defs>
</svg>
