<svg width="375" height="77" viewBox="0 0 375 77" fill="none" xmlns="http://www.w3.org/2000/svg">
<rect width="38.43" height="37.8981" transform="matrix(-0.00219698 -0.999998 -1 0 206.613 38.6891)" fill="#5EBE7C"/>
<path d="M168.715 38.6891L168.631 0.259245L206.613 38.6891H168.715Z" fill="#5EBE7C"/>
<rect width="38.1261" height="37.8981" transform="matrix(0.00219698 0.999998 1 0 206.529 0.259216)" fill="#EDE6D8"/>
<path d="M225.52 19.3224C235.985 19.3224 244.488 27.9933 244.511 38.6893H206.613C206.59 27.9933 215.054 19.3224 225.52 19.3224Z" fill="#0C434B"/>
<path d="M225.52 19.4366C235.985 19.4366 244.45 10.9019 244.427 0.373759H206.529C206.552 10.9019 215.054 19.4366 225.52 19.4366Z" fill="#EDE6D8"/>
<g clip-path="url(#clip0_1157_1120)">
<rect width="37.8981" height="37.8981" transform="matrix(-0.00219698 -0.999998 1 0 168.799 76.3979)" fill="#5EBE7C"/>
<path d="M168.798 76.3971C168.788 71.4203 169.757 66.4922 171.651 61.8942C173.546 57.2962 176.328 53.1183 179.84 49.5992C183.351 46.08 187.523 43.2885 192.117 41.3839C196.71 39.4793 201.636 38.4991 206.613 38.4991L206.697 76.3971H168.798Z" fill="#C9F7D7"/>
<rect width="37.899" height="37.8981" transform="matrix(-0.00219698 -0.999998 1 0 206.697 76.3981)" fill="#EDE6D8"/>
<rect width="18.8925" height="37.8981" transform="matrix(-0.00219698 -0.999998 1 0 206.697 76.3981)" fill="#5EBE7C"/>
<rect width="18.8925" height="37.8981" transform="matrix(-0.00219698 -0.999998 1 0 206.697 76.3981)" fill="#5EBE7C"/>
</g>
<rect width="76.385" height="75.4361" transform="matrix(1 0 0 -1 319.027 76.1662)" fill="#0B434B"/>
<path d="M395.412 76.1698C385.381 76.1698 375.448 74.2063 366.181 70.3914C356.914 66.5766 348.493 60.985 341.4 53.9361C334.307 46.8871 328.681 38.5188 324.842 29.3089C321.003 20.099 319.027 10.2279 319.027 0.259216L395.412 0.259222L395.412 76.1698Z" fill="#CAFFDA"/>
<path d="M395.419 38.6254C390.415 38.6084 385.334 37.6211 380.718 35.6848C376.101 33.7484 371.91 30.919 368.383 27.3581C364.857 23.7972 362.064 19.5745 360.165 14.9311C358.266 10.2877 357.297 5.3146 357.314 0.295676L395.42 0.299917L395.419 38.6254Z" fill="#5EBE7C"/>
<g clip-path="url(#clip1_1157_1120)">
<rect width="75.4361" height="75.9105" transform="matrix(1 0 0 -1 244.066 76.1703)" fill="white"/>
<rect width="76.0594" height="76.0594" transform="matrix(-0.999975 0.00709266 0.00709266 0.999975 320.125 -0.426941)" fill="#0B434B"/>
<path d="M243.388 0.315323C253.376 0.315323 263.267 2.28266 272.495 6.105C281.722 9.92735 290.107 15.5298 297.17 22.5926C304.233 29.6554 309.835 38.0401 313.658 47.2681C317.48 56.496 319.447 66.3865 319.447 76.3748L243.388 76.3748V0.315323Z" fill="white"/>
<path d="M243.387 38.6147C248.381 38.5793 253.333 39.5278 257.961 41.4062C262.588 43.2846 266.8 46.0561 270.356 49.5623C273.913 53.0686 276.744 57.241 278.688 61.8413C280.631 66.4416 281.65 71.3797 281.686 76.3737L243.657 76.6434L243.387 38.6147Z" fill="#5EBE7C"/>
</g>
<rect width="38.43" height="37.8981" transform="matrix(0.00219698 -0.999998 1 0 168.637 38.6891)" fill="#5EBE7C"/>
<path d="M206.535 38.6891L206.619 0.259245L168.637 38.6891H206.535Z" fill="#5EBE7C"/>
<rect width="38.1261" height="37.8981" transform="matrix(-0.00219698 0.999998 -1 0 168.721 0.259338)" fill="#EDE6D8"/>
<path d="M149.73 19.3225C139.265 19.3225 130.762 27.9933 130.739 38.6893H168.637C168.66 27.9933 160.196 19.3225 149.73 19.3225Z" fill="#0C434B"/>
<path d="M149.73 19.4368C139.265 19.4368 130.8 10.902 130.823 0.373881H168.721C168.698 10.902 160.196 19.4368 149.73 19.4368Z" fill="#EDE6D8"/>
<g clip-path="url(#clip2_1157_1120)">
<rect width="37.8981" height="37.8981" transform="matrix(0.00219698 -0.999998 -1 0 206.451 76.398)" fill="#5EBE7C"/>
<path d="M206.452 76.3972C206.462 71.4203 205.493 66.4922 203.599 61.8942C201.704 57.2962 198.922 53.1184 195.41 49.5992C191.899 46.0801 187.727 43.2885 183.133 41.384C178.54 39.4794 173.614 38.4991 168.637 38.4991L168.553 76.3972H206.452Z" fill="#C9F7D7"/>
<rect width="37.899" height="37.8981" transform="matrix(0.00219698 -0.999998 -1 0 168.553 76.3981)" fill="#EDE6D8"/>
<rect width="18.8925" height="37.8981" transform="matrix(0.00219698 -0.999998 -1 0 168.553 76.3981)" fill="#5EBE7C"/>
<rect width="18.8925" height="37.8981" transform="matrix(0.00219698 -0.999998 -1 0 168.553 76.3981)" fill="#5EBE7C"/>
</g>
<rect x="56.2207" y="76.1661" width="76.385" height="75.4361" transform="rotate(180 56.2207 76.1661)" fill="#0B434B"/>
<path d="M-20.1643 76.1698C-10.1332 76.1698 -0.200451 74.2063 9.067 70.3914C18.3344 66.5766 26.7551 60.985 33.8481 53.9361C40.9411 46.8871 46.5675 38.5188 50.4062 29.3089C54.2449 20.099 56.2207 10.2279 56.2207 0.259216L-20.1643 0.259222L-20.1643 76.1698Z" fill="#CAFFDA"/>
<path d="M-20.171 38.6254C-15.1669 38.6084 -10.0862 37.6211 -5.46947 35.6848C-0.852787 33.7484 3.33841 30.919 6.86481 27.3581C10.3912 23.7972 13.1838 19.5745 15.083 14.9311C16.9823 10.2877 17.9511 5.3146 17.934 0.295676L-20.1722 0.299917L-20.171 38.6254Z" fill="#5EBE7C"/>
<g clip-path="url(#clip3_1157_1120)">
<rect width="75.4361" height="75.9105" transform="matrix(-1 0 0 -1 131.184 76.1703)" fill="white"/>
<rect x="55.1172" y="-0.426941" width="76.0594" height="76.0594" transform="rotate(0.406383 55.1172 -0.426941)" fill="#0B434B"/>
<path d="M131.864 0.315323C121.876 0.315323 111.985 2.28266 102.757 6.105C93.5295 9.92735 85.1447 15.5298 78.082 22.5926C71.0192 29.6554 65.4167 38.0401 61.5944 47.2681C57.772 56.496 55.8047 66.3865 55.8047 76.3748L131.864 76.3748V0.315323Z" fill="white"/>
<path d="M131.863 38.6147C126.869 38.5793 121.917 39.5278 117.289 41.4062C112.662 43.2846 108.45 46.0561 104.894 49.5623C101.337 53.0686 98.5063 57.241 96.5624 61.8413C94.6186 66.4416 93.5999 71.3797 93.5645 76.3737L131.593 76.6434L131.863 38.6147Z" fill="#5EBE7C"/>
</g>
<defs>
<clipPath id="clip0_1157_1120">
<rect width="78.597" height="37.6709" fill="white" transform="matrix(1 0 0.00219698 0.999998 168.715 38.4991)"/>
</clipPath>
<clipPath id="clip1_1157_1120">
<rect width="75.4361" height="75.9105" fill="white" transform="matrix(1 0 0 -1 244.066 76.1703)"/>
</clipPath>
<clipPath id="clip2_1157_1120">
<rect width="78.597" height="37.6709" fill="white" transform="matrix(-1 0 -0.00219698 0.999998 206.535 38.4991)"/>
</clipPath>
<clipPath id="clip3_1157_1120">
<rect width="75.4361" height="75.9105" fill="white" transform="matrix(-1 0 0 -1 131.184 76.1703)"/>
</clipPath>
</defs>
</svg>
