<svg width="1440" height="146" viewBox="0 0 1440 146" fill="none" xmlns="http://www.w3.org/2000/svg">
<rect width="72.8673" height="71.8587" transform="matrix(-0.00219698 -0.999998 -1 0 756.092 73.3585)" fill="#5EBE7C"/>
<path d="M684.233 73.3585L684.073 0.491435L756.092 73.3585H684.233Z" fill="#5EBE7C"/>
<rect width="72.291" height="71.8587" transform="matrix(0.00219698 0.999998 1 0 755.932 0.491943)" fill="#EDE6D8"/>
<path d="M791.94 36.6377C811.783 36.6377 827.905 53.0785 827.95 73.3592H756.091C756.047 53.0785 772.097 36.6377 791.94 36.6377Z" fill="#0C434B"/>
<path d="M791.94 36.8543C811.783 36.8543 827.834 20.6715 827.79 0.709096H755.931C755.975 20.6715 772.097 36.8543 791.94 36.8543Z" fill="#EDE6D8"/>
<g clip-path="url(#clip0_1154_792)">
<rect width="71.8587" height="71.8587" transform="matrix(-0.00219698 -0.999998 1 0 684.393 144.859)" fill="#5EBE7C"/>
<path d="M684.391 144.857C684.37 135.42 686.208 126.076 689.8 117.358C693.393 108.64 698.668 100.718 705.326 94.0453C711.984 87.3726 719.894 82.0796 728.605 78.4683C737.315 74.8571 746.655 72.9984 756.092 72.9984L756.25 144.857H684.391Z" fill="#C9F7D7"/>
<rect width="71.8605" height="71.8587" transform="matrix(-0.00219698 -0.999998 1 0 756.252 144.859)" fill="#EDE6D8"/>
<rect width="35.8222" height="71.8587" transform="matrix(-0.00219698 -0.999998 1 0 756.252 144.859)" fill="#5EBE7C"/>
<rect width="35.8222" height="71.8587" transform="matrix(-0.00219698 -0.999998 1 0 756.25 144.859)" fill="#5EBE7C"/>
</g>
<rect width="143.317" height="143.034" transform="matrix(1 0 0 -1 1257.11 144.423)" fill="#0B434B"/>
<path d="M1400.14 144.426C1381.36 144.426 1362.76 140.703 1345.41 133.469C1328.05 126.236 1312.29 115.634 1299 102.268C1285.72 88.9028 1275.19 73.0356 1268 55.5727C1260.81 38.1098 1257.11 19.3932 1257.11 0.491455L1400.14 0.491466V144.426Z" fill="#EDE6D8"/>
<path d="M1400.14 72.4588C1390.81 72.4588 1381.57 70.5974 1372.95 66.9807C1364.33 63.364 1356.49 58.0629 1349.89 51.3802C1343.29 44.6974 1338.06 36.7638 1334.49 28.0323C1330.91 19.3009 1329.08 9.94256 1329.08 0.491699L1400.14 0.491705V72.4588Z" fill="#5EBE7C"/>
<rect width="71.8587" height="71.8587" transform="matrix(-0.00219698 0.999998 -1 0 1185.19 72.5695)" fill="#5EBE7C"/>
<path d="M1113.33 72.5695L1113.18 144.428L1185.19 72.5695H1113.33Z" fill="#5EBE7C"/>
<rect width="71.8587" height="71.8587" transform="matrix(0.00219698 -0.999998 1 0 1185.04 144.427)" fill="#EDE6D8"/>
<path d="M1221.04 108.499C1240.89 108.499 1257.01 92.4131 1257.05 72.5699H1185.19C1185.15 92.4131 1201.2 108.499 1221.04 108.499Z" fill="#0C434B"/>
<path d="M1221.04 108.499C1240.89 108.499 1256.94 124.585 1256.89 144.428H1185.03C1185.08 124.585 1201.2 108.499 1221.04 108.499Z" fill="#EDE6D8"/>
<rect width="71.9659" height="71.8587" transform="matrix(-0.00219698 0.999998 1 0 1113.47 1.39392)" fill="#5EBE7C"/>
<path d="M1113.48 0.410136C1113.45 9.98997 1115.29 19.476 1118.88 28.3266C1122.48 37.1772 1127.75 45.2191 1134.41 51.9931C1141.07 58.7671 1148.98 64.1405 1157.69 67.8065C1166.4 71.4725 1175.74 73.3594 1185.17 73.3594L1185.33 0.410136H1113.48Z" fill="#C9F7D7"/>
<rect width="72.7935" height="71.8587" transform="matrix(-0.00219698 0.999998 1 0 1185.34 0.566223)" fill="#EDE6D8"/>
<rect width="36.3967" height="71.8587" transform="matrix(-0.00219698 0.999998 1 0 1185.34 0.566223)" fill="#5EBE7C"/>
<rect width="36.3967" height="71.8587" transform="matrix(-0.00219698 0.999998 1 0 1185.34 0.566223)" fill="#5EBE7C"/>
<rect width="144.834" height="143.035" transform="matrix(1 0 0 -1 969.242 144.419)" fill="#0B434B"/>
<path d="M1114.08 144.426C1095.06 144.426 1076.22 140.703 1058.65 133.469C1041.08 126.236 1025.11 115.634 1011.66 102.268C998.214 88.9028 987.546 73.0356 980.267 55.5727C972.988 38.1098 969.242 19.3932 969.242 0.491455L1114.08 0.491466L1114.08 144.426Z" fill="#CAFFDA"/>
<path d="M1114.09 73.2377C1104.6 73.2055 1094.97 71.3335 1086.22 67.662C1077.46 63.9904 1069.52 58.6256 1062.83 51.8737C1056.14 45.1218 1050.85 37.1152 1047.25 28.3108C1043.65 19.5065 1041.81 10.0769 1041.84 0.560534L1114.09 0.568576L1114.09 73.2377Z" fill="#5EBE7C"/>
<g clip-path="url(#clip1_1154_792)">
<rect width="143.035" height="143.934" transform="matrix(1 0 0 -1 827.105 144.427)" fill="white"/>
<rect width="144.217" height="144.217" transform="matrix(-0.999975 0.00709266 0.00709266 0.999975 971.318 -0.809631)" fill="#0B434B"/>
<path d="M825.817 0.59787C844.755 0.59787 863.509 4.32814 881.006 11.5757C898.503 18.8233 914.401 29.4462 927.793 42.8379C941.185 56.2297 951.808 72.128 959.055 89.6252C966.303 107.122 970.033 125.876 970.033 144.814L825.817 144.814V0.59787Z" fill="white"/>
<path d="M825.816 73.2175C835.285 73.1503 844.675 74.9489 853.449 78.5105C862.223 82.0722 870.209 87.3271 876.952 93.9753C883.696 100.624 889.063 108.535 892.749 117.257C896.435 125.98 898.366 135.343 898.434 144.812L826.327 145.324L825.816 73.2175Z" fill="#5EBE7C"/>
</g>
<rect width="71.8522" height="71.8491" transform="matrix(-0.00219689 0.999998 -1 0 1472.17 72.5715)" fill="#5EBE7C"/>
<path d="M1400.32 72.5715L1400.16 144.424L1472.17 72.5715H1400.32Z" fill="#5EBE7C"/>
<rect width="72.0731" height="71.8587" transform="matrix(-0.00219689 0.999998 1 0 1400.3 0.493958)" fill="#5EBE7C"/>
<path d="M1400.3 0.496422C1400.28 9.96117 1402.12 19.3332 1405.71 28.0775C1409.3 36.8218 1414.58 44.7671 1421.24 51.4597C1427.9 58.1523 1435.81 63.4611 1444.52 67.0831C1453.23 70.7051 1462.57 72.5693 1472 72.5693L1472.16 0.496422H1400.3Z" fill="#77E298"/>
<rect width="72.8673" height="71.8587" transform="matrix(0.00219698 -0.999998 1 0 684.088 73.3585)" fill="#5EBE7C"/>
<path d="M755.947 73.3585L756.107 0.491435L684.088 73.3585H755.947Z" fill="#5EBE7C"/>
<rect width="72.291" height="71.8587" transform="matrix(-0.00219698 0.999998 -1 0 684.248 0.491943)" fill="#EDE6D8"/>
<path d="M648.24 36.6377C628.397 36.6377 612.274 53.0785 612.23 73.3592H684.089C684.133 53.0785 668.083 36.6377 648.24 36.6377Z" fill="#0C434B"/>
<path d="M648.24 36.8543C628.397 36.8543 612.346 20.6715 612.39 0.709096H684.249C684.205 20.6715 668.083 36.8543 648.24 36.8543Z" fill="#EDE6D8"/>
<g clip-path="url(#clip2_1154_792)">
<rect width="71.8587" height="71.8587" transform="matrix(0.00219698 -0.999998 -1 0 755.787 144.859)" fill="#5EBE7C"/>
<path d="M755.789 144.857C755.809 135.42 753.971 126.076 750.379 117.358C746.787 108.64 741.511 100.718 734.853 94.0453C728.195 87.3726 720.285 82.0796 711.575 78.4683C702.865 74.8571 693.525 72.9984 684.088 72.9984L683.93 144.857H755.789Z" fill="#C9F7D7"/>
<rect width="71.8605" height="71.8587" transform="matrix(0.00219698 -0.999998 -1 0 683.928 144.859)" fill="#EDE6D8"/>
<rect width="35.8222" height="71.8587" transform="matrix(0.00219698 -0.999998 -1 0 683.928 144.859)" fill="#5EBE7C"/>
<rect width="35.8222" height="71.8587" transform="matrix(0.00219698 -0.999998 -1 0 683.93 144.859)" fill="#5EBE7C"/>
</g>
<rect x="183.07" y="144.423" width="143.317" height="143.034" transform="rotate(180 183.07 144.423)" fill="#0B434B"/>
<path d="M40.0356 144.426C58.8192 144.426 77.4189 140.703 94.7726 133.469C112.126 126.236 127.894 115.634 141.176 102.268C154.458 88.9028 164.994 73.0356 172.182 55.5727C179.371 38.1098 183.07 19.3932 183.07 0.491455L40.0356 0.491466V144.426Z" fill="#EDE6D8"/>
<path d="M40.036 72.4588C49.3687 72.4588 58.61 70.5974 67.2323 66.9807C75.8547 63.364 83.6891 58.0629 90.2883 51.3802C96.8875 44.6974 102.122 36.7638 105.694 28.0323C109.265 19.3009 111.104 9.94256 111.104 0.491699L40.036 0.491705V72.4588Z" fill="#5EBE7C"/>
<rect width="71.8587" height="71.8587" transform="matrix(0.00219698 0.999998 1 0 254.986 72.5695)" fill="#5EBE7C"/>
<path d="M326.845 72.5695L327.003 144.428L254.986 72.5695H326.845Z" fill="#5EBE7C"/>
<rect width="71.8587" height="71.8587" transform="matrix(-0.00219698 -0.999998 -1 0 255.145 144.427)" fill="#EDE6D8"/>
<path d="M219.136 108.499C199.293 108.499 183.172 92.4131 183.128 72.5699H254.987C255.03 92.4131 238.98 108.499 219.136 108.499Z" fill="#0C434B"/>
<path d="M219.136 108.499C199.293 108.499 183.242 124.585 183.286 144.428H255.145C255.101 124.585 238.98 108.499 219.136 108.499Z" fill="#EDE6D8"/>
<rect width="71.9659" height="71.8587" transform="matrix(0.00219698 0.999998 -1 0 326.705 1.39392)" fill="#5EBE7C"/>
<path d="M326.704 0.410136C326.725 9.98997 324.888 19.476 321.296 28.3266C317.704 37.1772 312.429 45.2191 305.771 51.9931C299.113 58.7671 291.203 64.1405 282.493 67.8065C273.783 71.4725 264.442 73.3594 255.006 73.3594L254.846 0.410136H326.704Z" fill="#C9F7D7"/>
<rect width="72.7935" height="71.8587" transform="matrix(0.00219698 0.999998 -1 0 254.844 0.566223)" fill="#EDE6D8"/>
<rect width="36.3967" height="71.8587" transform="matrix(0.00219698 0.999998 -1 0 254.844 0.566223)" fill="#5EBE7C"/>
<rect width="36.3967" height="71.8587" transform="matrix(0.00219698 0.999998 -1 0 254.844 0.566223)" fill="#5EBE7C"/>
<rect x="470.938" y="144.419" width="144.834" height="143.035" transform="rotate(180 470.938 144.419)" fill="#0B434B"/>
<path d="M326.104 144.426C345.124 144.426 363.957 140.703 381.529 133.469C399.101 126.236 415.068 115.634 428.517 102.268C441.966 88.9028 452.634 73.0356 459.913 55.5727C467.191 38.1098 470.938 19.3932 470.937 0.491455L326.104 0.491466L326.104 144.426Z" fill="#CAFFDA"/>
<path d="M326.088 73.2377C335.576 73.2055 345.21 71.3335 353.963 67.662C362.717 63.9904 370.664 58.6256 377.35 51.8737C384.037 45.1218 389.332 37.1152 392.933 28.3108C396.534 19.5065 398.371 10.0769 398.339 0.560534L326.085 0.568576L326.088 73.2377Z" fill="#5EBE7C"/>
<g clip-path="url(#clip3_1154_792)">
<rect width="143.035" height="143.934" transform="matrix(-1 0 0 -1 613.074 144.427)" fill="white"/>
<rect x="468.861" y="-0.809631" width="144.217" height="144.217" transform="rotate(0.406383 468.861 -0.809631)" fill="#0B434B"/>
<path d="M614.363 0.59787C595.424 0.59787 576.671 4.32814 559.174 11.5757C541.677 18.8233 525.778 29.4462 512.387 42.8379C498.995 56.2297 488.372 72.128 481.124 89.6252C473.877 107.122 470.146 125.876 470.146 144.814L614.363 144.814V0.59787Z" fill="white"/>
<path d="M614.362 73.2175C604.893 73.1503 595.503 74.9489 586.729 78.5105C577.955 82.0722 569.968 87.3271 563.225 93.9753C556.482 100.624 551.114 108.535 547.429 117.257C543.743 125.98 541.811 135.343 541.744 144.812L613.851 145.324L614.362 73.2175Z" fill="#5EBE7C"/>
</g>
<rect width="71.8522" height="71.8491" transform="matrix(0.00219689 0.999998 1 0 -31.9922 72.5715)" fill="#5EBE7C"/>
<path d="M39.8569 72.5715L40.0148 144.424L-31.9922 72.5715H39.8569Z" fill="#5EBE7C"/>
<rect width="72.0731" height="71.8587" transform="matrix(0.00219689 0.999998 -1 0 39.877 0.493958)" fill="#5EBE7C"/>
<path d="M39.8762 0.496422C39.897 9.96117 38.0589 19.3332 34.4669 28.0775C30.8748 36.8218 25.5992 44.7671 18.9412 51.4597C12.2832 58.1523 4.37322 63.4611 -4.33712 67.0831C-13.0475 70.7051 -22.3876 72.5693 -31.8242 72.5693L-31.9825 0.496422H39.8762Z" fill="#77E298"/>
<defs>
<clipPath id="clip0_1154_792">
<rect width="149.028" height="71.4279" fill="white" transform="matrix(1 0 0.00219698 0.999998 684.232 72.9984)"/>
</clipPath>
<clipPath id="clip1_1154_792">
<rect width="143.035" height="143.934" fill="white" transform="matrix(1 0 0 -1 827.105 144.427)"/>
</clipPath>
<clipPath id="clip2_1154_792">
<rect width="149.028" height="71.4279" fill="white" transform="matrix(-1 0 -0.00219698 0.999998 755.947 72.9984)"/>
</clipPath>
<clipPath id="clip3_1154_792">
<rect width="143.035" height="143.934" fill="white" transform="matrix(-1 0 0 -1 613.074 144.427)"/>
</clipPath>
</defs>
</svg>
