<svg width="53" height="53" viewBox="0 0 53 53" fill="none" xmlns="http://www.w3.org/2000/svg">
<circle cx="26.5" cy="26.5" r="26.5" transform="matrix(1 0 0 -1 0 53)" fill="white"/>
<path d="M42.8998 20.3424C42.8998 20.3424 42.556 17.9153 41.4971 16.8496C40.1564 15.4469 38.6575 15.44 37.9699 15.3575C33.0469 15 25.6555 15 25.6555 15H25.6418C25.6418 15 18.2504 15 13.3274 15.3575C12.6398 15.44 11.1409 15.4469 9.80018 16.8496C8.74132 17.9153 8.40441 20.3424 8.40441 20.3424C8.40441 20.3424 8.04688 23.1958 8.04688 26.0424V28.7101C8.04688 31.5567 8.39754 34.4101 8.39754 34.4101C8.39754 34.4101 8.74132 36.8372 9.7933 37.9029C11.1341 39.3056 12.8942 39.2574 13.6781 39.4087C16.4971 39.6769 25.6487 39.7594 25.6487 39.7594C25.6487 39.7594 33.0469 39.7456 37.9699 39.395C38.6575 39.3125 40.1564 39.3056 41.4971 37.9029C42.556 36.8372 42.8998 34.4101 42.8998 34.4101C42.8998 34.4101 43.2504 31.5635 43.2504 28.7101V26.0424C43.2504 23.1958 42.8998 20.3424 42.8998 20.3424ZM22.0114 31.9486V22.0545L31.5205 27.0187L22.0114 31.9486Z" fill="#FF0000"/>
</svg>
